<svg xmlns="http://www.w3.org/2000/svg" width="220" height="120" viewBox="0 0 220 120" fill="none">
  <path d="M10 78c40-30 80-44 120-40 40 4 62 24 80 44" stroke="white" stroke-opacity="0.45" stroke-width="6" stroke-linecap="round"/>
  <g fill="white" fill-opacity="0.28">
    <path d="M36 68c8-10 18-16 30-18-6 10-14 18-26 24-1-2-2-4-4-6z"/>
    <path d="M62 54c10-8 22-12 36-12-8 9-18 16-32 20-1-3-2-5-4-8z"/>
    <path d="M90 46c12-6 26-8 42-6-10 8-22 12-38 14-1-3-2-5-4-8z"/>
    <path d="M130 46c12 2 22 8 30 16-12-2-22-8-30-16z"/>
    <path d="M160 56c10 4 18 10 24 18-12-4-20-10-24-18z"/>
  </g>
</svg>

