<svg width="200" height="42" viewBox="0 0 200 42" fill="none" xmlns="http://www.w3.org/2000/svg"><path d="M3.00027 26.182L3.00027 16.9977C3.00232 15.8273 3.46881 14.7055 4.2973 13.8788C5.12579 13.0521 6.24854 12.5879 7.41897 12.5883C7.49483 12.5883 7.57379 12.5883 7.64811 12.5883C8.88546 12.5937 10.0743 12.1074 10.9531 11.2364C11.832 10.3654 12.3289 9.18094 12.3347 7.94359C12.3347 7.90334 12.3347 7.86463 12.3347 7.82438L12.3347 7.81509C12.3368 6.94113 12.5982 6.08746 13.0857 5.36209C13.5731 4.63673 14.2649 4.07228 15.0733 3.74017C15.8817 3.40806 16.7704 3.32322 17.627 3.49639C18.4837 3.66956 19.2697 4.09296 19.8856 4.713C20.5015 5.33303 20.9196 6.12185 21.0871 6.97961C21.2546 7.83737 21.1638 8.72554 20.8263 9.5317C20.4888 10.3379 19.9198 11.0258 19.1912 11.5084C18.4626 11.9911 17.6072 12.2468 16.7332 12.2431C16.6558 12.2431 16.5784 12.2431 16.5041 12.2431C15.2681 12.2431 14.0826 12.7334 13.2077 13.6066C12.3329 14.4797 11.8401 15.6642 11.8377 16.9002C11.8377 16.9343 11.8377 16.9683 11.8377 17.0039L11.8377 26.182C11.816 27.3393 11.341 28.442 10.5149 29.2528C9.68869 30.0637 8.57733 30.5179 7.41974 30.5179C6.26215 30.5179 5.15079 30.0637 4.32463 29.2528C3.49846 28.442 3.02348 27.3393 3.00182 26.182L3.00027 26.182Z" fill="#32E388"></path><path d="M21.6315 17.0487C21.6331 16.1746 21.8939 15.3206 22.381 14.5949C22.8681 13.8691 23.5596 13.3041 24.368 12.9716C25.1763 12.639 26.0652 12.5537 26.922 12.7265C27.7788 12.8993 28.5651 13.3225 29.1814 13.9424C29.7976 14.5623 30.216 15.3511 30.3838 16.209C30.5515 17.0668 30.4609 17.9552 30.1235 18.7615C29.7861 19.5679 29.217 20.256 28.4884 20.7387C27.7597 21.2215 26.9042 21.4773 26.0301 21.4736C24.8605 21.4687 23.7406 21.0001 22.916 20.1705C22.0914 19.341 21.6295 18.2183 21.6315 17.0487Z" fill="#32E388"></path><path d="M21.6315 7.72534C21.6331 6.85125 21.8939 5.99727 22.381 5.27149C22.8681 4.54572 23.5596 3.98079 24.368 3.6482C25.1763 3.31562 26.0652 3.23034 26.922 3.40316C27.7788 3.57599 28.5651 3.99914 29.1814 4.61905C29.7976 5.23897 30.216 6.02777 30.3838 6.88562C30.5515 7.74347 30.4609 8.6318 30.1235 9.43814C29.7861 10.2445 29.217 10.9326 28.4884 11.4154C27.7597 11.8982 26.9042 12.1539 26.0301 12.1502C24.8605 12.1453 23.7406 11.6767 22.916 10.8472C22.0914 10.0177 21.6295 8.89497 21.6315 7.72534Z" fill="#D9E3E3"></path><path d="M12.3132 26.3987C12.315 25.5245 12.5762 24.6706 13.0636 23.945C13.5511 23.2193 14.2429 22.6546 15.0514 22.3224C15.86 21.9901 16.7489 21.9053 17.6057 22.0785C18.4626 22.2518 19.2487 22.6753 19.8647 23.2956C20.4806 23.9159 20.8986 24.705 21.0659 25.563C21.2331 26.421 21.142 27.3094 20.8041 28.1156C20.4662 28.9218 19.8966 29.6096 19.1676 30.0919C18.4385 30.5743 17.5828 30.8294 16.7086 30.8251C15.5392 30.8198 14.4196 30.3508 13.5955 29.5209C12.7715 28.6911 12.3103 27.5682 12.3132 26.3987Z" fill="#6B32E3"></path><path d="M39.7773 17.2175L39.7773 26.4017C39.7753 27.5718 39.309 28.6934 38.4809 29.5201C37.6527 30.3468 36.5304 30.8111 35.3602 30.8111C35.2843 30.8111 35.2054 30.8111 35.1311 30.8111C33.8937 30.8057 32.7049 31.292 31.826 32.163C30.9472 33.0341 30.4502 34.2185 30.4445 35.4558C30.4445 35.4961 30.4445 35.5348 30.4445 35.575L30.4445 35.5843C30.4424 36.4583 30.181 37.312 29.6935 38.0373C29.206 38.7627 28.5143 39.3271 27.7059 39.6592C26.8975 39.9914 26.0088 40.0762 25.1521 39.903C24.2955 39.7298 23.5095 39.3065 22.8936 38.6864C22.2777 38.0664 21.8595 37.2776 21.6921 36.4198C21.5246 35.562 21.6154 34.6739 21.9528 33.8677C22.2903 33.0615 22.8594 32.3736 23.588 31.891C24.3166 31.4083 25.172 31.1527 26.0459 31.1563C26.1233 31.1563 26.2008 31.1563 26.2751 31.1563C27.51 31.1563 28.6946 30.6668 29.5693 29.7951C30.4439 28.9233 30.9374 27.7403 30.9415 26.5054C30.9415 26.4713 30.9415 26.4373 30.9415 26.4017L30.9415 17.2175C30.9632 16.0601 31.4381 14.9574 32.2643 14.1466C33.0905 13.3357 34.2018 12.8815 35.3594 12.8815C36.517 12.8815 37.6284 13.3357 38.4545 14.1466C39.2807 14.9574 39.7557 16.0601 39.7773 17.2175Z" fill="#32E388"></path><path d="M21.1455 35.5906C21.144 36.4647 20.8831 37.3187 20.396 38.0445C19.9089 38.7702 19.2174 39.3352 18.409 39.6678C17.6007 40.0003 16.7118 40.0856 15.855 39.9128C14.9982 39.74 14.2119 39.3168 13.5957 38.6969C12.9794 38.077 12.561 37.2882 12.3933 36.4303C12.2256 35.5725 12.3161 34.6842 12.6535 33.8778C12.9909 33.0715 13.56 32.3834 14.2887 31.9006C15.0173 31.4178 15.8728 31.1621 16.7469 31.1657C17.9165 31.1707 19.0365 31.6393 19.8611 32.4688C20.6856 33.2983 21.1476 34.421 21.1455 35.5906Z" fill="#6B32E3"></path><path d="M25.9978 30.8158C24.9381 30.81 23.9148 30.4286 23.1097 29.7395C22.3046 29.0504 21.77 28.0981 21.6008 27.052C21.5388 26.6618 21.5543 26.2608 21.5141 25.866C21.4123 24.717 20.885 23.6474 20.0355 22.8671C19.1403 22.0136 17.945 21.547 16.7083 21.5681C15.9193 21.5568 15.1473 21.3364 14.4712 20.9295C13.7951 20.5225 13.239 19.9436 12.8597 19.2516C12.4803 18.5597 12.2912 17.7795 12.3117 16.9906C12.3322 16.2018 12.5616 15.4324 12.9763 14.7611C13.3911 14.0898 13.9765 13.5405 14.6729 13.1692C15.3692 12.7979 16.1515 12.6179 16.9401 12.6476C17.7286 12.6773 18.4952 12.9156 19.1617 13.3382C19.8281 13.7607 20.3706 14.3525 20.7337 15.0531C21.0663 15.7066 21.2382 16.4301 21.2354 17.1633C21.2478 18.2739 21.6479 19.3452 22.3666 20.1919C23.0853 21.0387 24.0773 21.6076 25.171 21.8003C25.4622 21.8491 25.7568 21.8739 26.052 21.8747C27.1692 21.8861 28.2415 22.3162 29.057 23.0798C29.8725 23.8435 30.372 24.8852 30.4568 25.9992C30.5416 27.1133 30.2056 28.2186 29.515 29.0969C28.8244 29.9752 27.8296 30.5626 26.727 30.743C26.4824 30.7833 26.2362 30.7926 25.9978 30.8158Z" fill="#D9E3E3"></path><path d="M52.5852 28H55.6705V14.9091H52.5852V28ZM54.1364 13.0511C55.1165 13.0511 55.9176 12.3011 55.9176 11.3807C55.9176 10.4517 55.1165 9.7017 54.1364 9.7017C53.1477 9.7017 52.3466 10.4517 52.3466 11.3807C52.3466 12.3011 53.1477 13.0511 54.1364 13.0511ZM70.6641 32.9091V14.9091H67.63V17.0739H67.451C66.9822 16.1278 66.0192 14.7386 63.7095 14.7386C60.6839 14.7386 58.3061 17.108 58.3061 21.4716C58.3061 25.7841 60.6158 28.2301 63.701 28.2301C65.951 28.2301 66.9652 26.892 67.451 25.9375H67.5788V32.9091H70.6641ZM67.6385 21.4545C67.6385 23.9943 66.5305 25.6989 64.5618 25.6989C62.5249 25.6989 61.451 23.9091 61.451 21.4545C61.451 19.017 62.5078 17.2699 64.5618 17.2699C66.5476 17.2699 67.6385 18.9148 67.6385 21.4545ZM75.7436 28.1875C76.7493 28.1875 77.6101 27.3523 77.6186 26.3125C77.6101 25.2898 76.7493 24.4545 75.7436 24.4545C74.7038 24.4545 73.8601 25.2898 73.8686 26.3125C73.8601 27.3523 74.7038 28.1875 75.7436 28.1875ZM84.571 28.2642C86.625 28.2642 87.8523 27.3011 88.4148 26.2017H88.517V28H91.483V19.2386C91.483 15.7784 88.6619 14.7386 86.1648 14.7386C83.4119 14.7386 81.2983 15.9659 80.6165 18.3523L83.4972 18.7614C83.804 17.8665 84.6733 17.0994 86.1818 17.0994C87.6136 17.0994 88.3977 17.8324 88.3977 19.1193V19.1705C88.3977 20.0568 87.4688 20.0994 85.1591 20.3466C82.6193 20.6193 80.1903 21.3778 80.1903 24.3267C80.1903 26.9006 82.0739 28.2642 84.571 28.2642ZM85.3722 25.9972C84.0852 25.9972 83.1648 25.4091 83.1648 24.2756C83.1648 23.0909 84.196 22.5966 85.5767 22.4006C86.3864 22.2898 88.0057 22.0852 88.4062 21.7614V23.304C88.4062 24.7614 87.2301 25.9972 85.3722 25.9972ZM100.295 28.2557C103.585 28.2557 105.682 26.304 105.903 23.5256H102.955C102.69 24.9318 101.676 25.7415 100.321 25.7415C98.3949 25.7415 97.1506 24.1307 97.1506 21.4545C97.1506 18.8125 98.4205 17.2273 100.321 17.2273C101.804 17.2273 102.716 18.1818 102.955 19.4432H105.903C105.69 16.6051 103.474 14.7386 100.278 14.7386C96.4432 14.7386 94.0227 17.5085 94.0227 21.5057C94.0227 25.4688 96.3835 28.2557 100.295 28.2557ZM112.204 28.2642C114.258 28.2642 115.485 27.3011 116.048 26.2017H116.15V28H119.116V19.2386C119.116 15.7784 116.295 14.7386 113.798 14.7386C111.045 14.7386 108.931 15.9659 108.249 18.3523L111.13 18.7614C111.437 17.8665 112.306 17.0994 113.815 17.0994C115.246 17.0994 116.031 17.8324 116.031 19.1193V19.1705C116.031 20.0568 115.102 20.0994 112.792 20.3466C110.252 20.6193 107.823 21.3778 107.823 24.3267C107.823 26.9006 109.707 28.2642 112.204 28.2642ZM113.005 25.9972C111.718 25.9972 110.798 25.4091 110.798 24.2756C110.798 23.0909 111.829 22.5966 113.21 22.4006C114.019 22.2898 115.638 22.0852 116.039 21.7614V23.304C116.039 24.7614 114.863 25.9972 113.005 25.9972ZM127.076 28.2301C129.326 28.2301 130.34 26.892 130.826 25.9375H131.013V28H134.048V10.5455H130.954V17.0739H130.826C130.357 16.1278 129.394 14.7386 127.085 14.7386C124.059 14.7386 121.681 17.108 121.681 21.4716C121.681 25.7841 123.991 28.2301 127.076 28.2301ZM127.937 25.6989C125.9 25.6989 124.826 23.9091 124.826 21.4545C124.826 19.017 125.883 17.2699 127.937 17.2699C129.923 17.2699 131.013 18.9148 131.013 21.4545C131.013 23.9943 129.906 25.6989 127.937 25.6989ZM143.131 28.2557C146.182 28.2557 148.278 26.7642 148.824 24.4886L145.943 24.1648C145.526 25.2727 144.503 25.8523 143.173 25.8523C141.179 25.8523 139.858 24.5398 139.832 22.2983H148.952V21.3523C148.952 16.7585 146.19 14.7386 142.969 14.7386C139.219 14.7386 136.773 17.4915 136.773 21.5312C136.773 25.6392 139.185 28.2557 143.131 28.2557ZM139.841 20.2188C139.935 18.5483 141.17 17.142 143.011 17.142C144.784 17.142 145.977 18.4375 145.994 20.2188H139.841ZM151.562 28H154.647V20.0398C154.647 18.429 155.721 17.3381 157.05 17.3381C158.354 17.3381 159.249 18.2159 159.249 19.5625V28H162.275V19.8352C162.275 18.3608 163.153 17.3381 164.644 17.3381C165.888 17.3381 166.877 18.071 166.877 19.6903V28H169.971V19.2131C169.971 16.2898 168.283 14.7386 165.88 14.7386C163.979 14.7386 162.531 15.6761 161.951 17.1335H161.815C161.312 15.6506 160.042 14.7386 158.278 14.7386C156.522 14.7386 155.21 15.642 154.664 17.1335H154.511V14.9091H151.562V28ZM174.55 32.9091C176.953 32.9091 178.342 31.6733 179.084 29.5852L184.342 14.9261L181.044 14.9091L178.018 24.7955H177.882L174.865 14.9091H171.592L176.339 28.2727L176.075 28.9801C175.504 30.4716 174.601 30.5739 173.254 30.1818L172.538 32.5852C172.956 32.7557 173.706 32.9091 174.55 32.9091Z" fill="#FFFFFF"></path></svg>
